<svg width="456" height="264" viewBox="0 0 456 264" fill="none" xmlns="http://www.w3.org/2000/svg">
<path d="M19 13H13V19H11V13H5V11H11V5H13V11H19V13Z" fill="black" fill-opacity="0.54"/>
<path fill-rule="evenodd" clip-rule="evenodd" d="M53 3H67C68.1 3 69 3.9 69 5V19C69 20.1 68.1 21 67 21H53C51.89 21 51 20.1 51 19V5C51 3.9 51.89 3 53 3ZM61 13H65V11H61V7H59V11H55V13H59V17H61V13Z" fill="black" fill-opacity="0.54"/>
<path fill-rule="evenodd" clip-rule="evenodd" d="M98 12C98 6.48 102.48 2 108 2C113.52 2 118 6.48 118 12C118 17.52 113.52 22 108 22C102.48 22 98 17.52 98 12ZM109 13H113V11H109V7H107V11H103V13H107V17H109V13Z" fill="black" fill-opacity="0.54"/>
<path fill-rule="evenodd" clip-rule="evenodd" d="M156 2C150.48 2 146 6.48 146 12C146 17.52 150.48 22 156 22C161.52 22 166 17.52 166 12C166 6.48 161.52 2 156 2ZM155 7V11H151V13H155V17H157V13H161V11H157V7H155ZM148 12C148 16.41 151.59 20 156 20C160.41 20 164 16.41 164 12C164 7.59 160.41 4 156 4C151.59 4 148 7.59 148 12Z" fill="black" fill-opacity="0.54"/>
<path fill-rule="evenodd" clip-rule="evenodd" d="M212.54 5.23L211.15 3.55C210.88 3.21 210.47 3 210 3H198C197.53 3 197.12 3.21 196.84 3.55L195.46 5.23C195.17 5.57 195 6.02 195 6.5V19C195 20.1 195.9 21 197 21H211C212.1 21 213 20.1 213 19V6.5C213 6.02 212.83 5.57 212.54 5.23ZM204 17.5L198.5 12H202V10H206V12H209.5L204 17.5ZM197.93 4L197.12 5H210.87L209.93 4H197.93Z" fill="black" fill-opacity="0.54"/>
<path fill-rule="evenodd" clip-rule="evenodd" d="M242 12C242 6.47 246.47 2 252 2C257.52 2 262 6.48 262 12C262 17.52 257.53 22 252 22C246.47 22 242 17.53 242 12ZM249.25 9.88C249.25 8.96 251.09 8.5 252 8.5C252.91 8.5 254.75 8.97 254.75 9.88V14.5H253.25V19H250.75V14.5H249.25V9.88ZM252 20C247.58 20 244 16.42 244 12C244 7.58 247.58 4 252 4C256.42 4 260 7.58 260 12C260 16.42 256.42 20 252 20ZM253.5 6.5C253.5 7.32843 252.828 8 252 8C251.172 8 250.5 7.32843 250.5 6.5C250.5 5.67157 251.172 5 252 5C252.828 5 253.5 5.67157 253.5 6.5Z" fill="black" fill-opacity="0.54"/>
<path fill-rule="evenodd" clip-rule="evenodd" d="M295 3H310C311.1 3 312 3.9 312 5V19C312 20.1 311.1 21 310 21H295C294.31 21 293.77 20.64 293.41 20.11L288 12L293.41 3.88C293.77 3.35 294.31 3 295 3ZM305.59 17L307 15.59L303.41 12L307 8.41L305.59 7L302 10.59L298.41 7L297 8.41L300.59 12L297 15.59L298.41 17L302 13.41L305.59 17Z" fill="black" fill-opacity="0.54"/>
<path fill-rule="evenodd" clip-rule="evenodd" d="M341 21H355C356.1 21 357 20.1 357 19V5C357 3.9 356.1 3 355 3H341C339.9 3 339 3.9 339 5V19C339 20.1 339.9 21 341 21ZM349 9.5H354V7.5H349V9.5ZM349 16.5H354V14.5H349V16.5ZM342 11H347V6H342V11ZM346 7H343V10H346V7ZM342 18H347V13H342V18ZM346 14H343V17H346V14Z" fill="black" fill-opacity="0.54"/>
<path fill-rule="evenodd" clip-rule="evenodd" d="M396 2C390.48 2 386 6.48 386 12C386 17.52 390.48 22 396 22C401.52 22 406 17.52 406 12C406 6.48 401.52 2 396 2ZM388 12C388 7.58 391.58 4 396 4C397.85 4 399.55 4.63 400.9 5.69L389.69 16.9C388.63 15.55 388 13.85 388 12ZM391.1 18.31C392.45 19.37 394.15 20 396 20C400.42 20 404 16.42 404 12C404 10.15 403.37 8.45 402.31 7.1L391.1 18.31Z" fill="black" fill-opacity="0.54"/>
<path d="M451 6.41L449.59 5L444 10.59L438.41 5L437 6.41L442.59 12L437 17.59L438.41 19L444 13.41L449.59 19L451 17.59L445.41 12L451 6.41Z" fill="black" fill-opacity="0.54"/>
<path fill-rule="evenodd" clip-rule="evenodd" d="M16 49H4C2.9 49 2 49.9 2 51V65H4V51H16V49ZM19 53H8C6.9 53 6 53.9 6 55V69C6 70.1 6.9 71 8 71H19C20.1 71 21 70.1 21 69V55C21 53.9 20.1 53 19 53ZM8 69H19V55H8V69Z" fill="black" fill-opacity="0.54"/>
<path fill-rule="evenodd" clip-rule="evenodd" d="M68.71 53.63C69.1 54.02 69.1 54.65 68.71 55.04L66.88 56.87L63.13 53.12L64.96 51.29C65.35 50.9 65.98 50.9 66.37 51.29L68.71 53.63ZM51 69V65.25L62.06 54.19L65.81 57.94L54.75 69H51Z" fill="black" fill-opacity="0.54"/>
<path fill-rule="evenodd" clip-rule="evenodd" d="M105.64 55.64C105.87 55.14 106 54.59 106 54C106 51.79 104.21 50 102 50C99.79 50 98 51.79 98 54C98 56.21 99.79 58 102 58C102.59 58 103.14 57.87 103.64 57.64L106 60L103.64 62.36C103.14 62.13 102.59 62 102 62C99.79 62 98 63.79 98 66C98 68.21 99.79 70 102 70C104.21 70 106 68.21 106 66C106 65.41 105.87 64.86 105.64 64.36L108 62L115 69H118V68L105.64 55.64ZM102 56C100.9 56 100 55.11 100 54C100 52.89 100.9 52 102 52C103.1 52 104 52.89 104 54C104 55.11 103.1 56 102 56ZM100 66C100 67.11 100.9 68 102 68C103.1 68 104 67.11 104 66C104 64.89 103.1 64 102 64C100.9 64 100 64.89 100 66ZM108 60.5C107.72 60.5 107.5 60.28 107.5 60C107.5 59.72 107.72 59.5 108 59.5C108.28 59.5 108.5 59.72 108.5 60C108.5 60.28 108.28 60.5 108 60.5ZM109 57L115 51H118V52L111 59L109 57Z" fill="black" fill-opacity="0.54"/>
<path fill-rule="evenodd" clip-rule="evenodd" d="M155 53H158V55H146V53H149L150 52H154L155 53ZM147 66C147 67.1 147.9 68 149 68H155C156.1 68 157 67.1 157 66V56H147V66ZM159 56H166V58H159V56ZM159 64H163V66H159V64ZM165 60H159V62H165V60Z" fill="black" fill-opacity="0.54"/>
<path fill-rule="evenodd" clip-rule="evenodd" d="M213.05 54.3C213.62 54.65 213.99 55.28 213.99 56L214 66C214 67.1 213.1 68 212 68H196C194.9 68 194 67.1 194 66V56C194 55.28 194.38 54.65 194.95 54.3L204 49L213.05 54.3ZM195.74 55.84L204 61L212.26 55.84L204 51L195.74 55.84Z" fill="black" fill-opacity="0.54"/>
<path fill-rule="evenodd" clip-rule="evenodd" d="M256 49H244C242.9 49 242 49.9 242 51V65H244V51H256V49ZM255 53L261 59V69C261 70.1 260.1 71 259 71H247.99C246.89 71 246 70.1 246 69L246.01 55C246.01 53.9 246.9 53 248 53H255ZM259.5 60H254V54.5L259.5 60Z" fill="black" fill-opacity="0.54"/>
<path fill-rule="evenodd" clip-rule="evenodd" d="M291 54V56H309V54H291ZM298 66H302V64H298V66ZM306 61H294V59H306V61Z" fill="black" fill-opacity="0.54"/>
<path d="M350.4 54L350 52H341V69H343V62H348.6L349 64H356V54H350.4Z" fill="black" fill-opacity="0.54"/>
<path fill-rule="evenodd" clip-rule="evenodd" d="M404 50H388C386.9 50 386 50.9 386 52V68C386 69.1 386.9 70 388 70H404C405.1 70 406 69.1 406 68V52C406 50.9 405.1 50 404 50ZM398.07 61.5L396 55.98L393.93 61.5H398.07ZM398.81 63.5L399.95 66.5H402.04L396.93 53.5H395.07L389.96 66.5H392.05L393.17 63.5H398.81Z" fill="black" fill-opacity="0.54"/>
<path d="M444 56V52L452 60L444 68V64H436V56H444Z" fill="black" fill-opacity="0.54"/>
<path fill-rule="evenodd" clip-rule="evenodd" d="M6.29997 101.67C5.98997 101.54 5.28997 102.18 4.58997 102.89L2.83997 101.18C3.05997 100.91 3.35997 100.61 3.71997 100.25C3.96997 100 5.11997 99 6.43997 99C7.30997 99 8.94997 99.69 8.94997 101.86C8.94997 103.22 8.42997 104 7.64997 105.14C7.19997 105.8 6.14997 107.57 5.79997 108.66C5.43997 109.75 5.70997 110.58 6.15997 110.58C6.57218 110.58 6.98439 110.084 7.23802 109.778C7.24897 109.765 7.25962 109.752 7.26997 109.74C7.49997 109.5 8.97997 107.75 9.55997 107.02C10.32 106.09 12.25 104.18 14.5 104.18C17.44 104.18 18.38 106.73 18.53 108.38H21V110.88H18.54C18.14 115.65 15.48 116.98 13.85 116.98C12.08 116.98 10.64 115.59 10.64 113.89C10.64 112.19 12.24 109.16 16.02 108.52C16.0129 108.47 16.0061 108.418 15.9993 108.367C15.9007 107.614 15.7848 106.73 14.26 106.73C13.01 106.73 11.39 108.68 10.18 110.17L10.1673 110.186C9.06326 111.548 8.18589 112.631 7.11997 112.94C6.21997 113.21 5.22997 113.04 4.47997 112.48C3.61997 111.84 3.13997 110.78 3.13997 109.5C3.13997 107.393 5.11926 104.489 5.79568 103.497C5.89601 103.349 5.96767 103.244 5.99997 103.19C6.29997 102.7 6.79997 101.87 6.29997 101.67ZM13.14 113.83C13.14 114.29 13.57 114.55 13.88 114.55C14.58 114.55 15.71 113.76 16.01 111.07C13.87 111.63 13.14 113.23 13.14 113.83Z" fill="black" fill-opacity="0.54"/>
<path fill-rule="evenodd" clip-rule="evenodd" d="M59 108C61.21 108 63 106.21 63 104C63 101.79 61.21 100 59 100C56.79 100 55 101.79 55 104C55 106.21 56.79 108 59 108ZM57 113L60 110.06C59.61 110.02 59.32 110 59 110C56.33 110 51 111.34 51 114V116H60L57 113ZM60 113L63.47 116.5L70 109.91L68.6 108.5L63.47 113.67L61.4 111.59L60 113Z" fill="black" fill-opacity="0.54"/>
<path fill-rule="evenodd" clip-rule="evenodd" d="M102.39 104.66L108.76 98.29C109.15 97.9 109.78 97.9 110.16 98.3L115.11 103.25C115.5 103.64 115.5 104.27 115.11 104.66L108.75 111.02C108.36 111.41 107.73 111.41 107.34 111.02L102.39 106.07C102 105.68 102 105.05 102.39 104.66ZM113 103.95L108.05 108.9L104.51 105.36L109.46 100.41L113 103.95ZM114 109H113.32L111.32 111H113.23L115 113H101L102.78 111H104.83L102.83 109H102L99 112V116C99 117.1 99.89 118 100.99 118H115C116.1 118 117 117.11 117 116V112L114 109Z" fill="black" fill-opacity="0.54"/>
<path fill-rule="evenodd" clip-rule="evenodd" d="M148.99 99H163C164.1 99 165 99.89 165 101V115C165 116.1 164.1 117 163 117H148.99C147.88 117 147 116.1 147 115L147.01 101C147.01 99.89 147.88 99 148.99 99ZM159 111H163V101H149V111H153C153 112.66 154.35 114 156 114C157.65 114 159 112.66 159 111Z" fill="black" fill-opacity="0.54"/>
<path d="M209 103H205V105H209C210.65 105 212 106.35 212 108C212 109.65 210.65 111 209 111H205V113H209C211.76 113 214 110.76 214 108C214 105.24 211.76 103 209 103Z" fill="black" fill-opacity="0.54"/>
<path d="M203 111H199C197.35 111 196 109.65 196 108C196 106.35 197.35 105 199 105H203V103H199C196.24 103 194 105.24 194 108C194 110.76 196.24 113 199 113H203V111Z" fill="black" fill-opacity="0.54"/>
<path d="M200 107H208V109H200V107Z" fill="black" fill-opacity="0.54"/>
<path fill-rule="evenodd" clip-rule="evenodd" d="M245.11 103.38L242 100.27L243.41 98.86L260.15 115.6L258.74 117.01L254.73 113H253V111.27L250.73 109H248V107H248.73L246.66 104.93C245.11 105.1 243.9 106.41 243.9 108C243.9 109.71 245.29 111.1 247 111.1H251V113H247C244.24 113 242 110.76 242 108C242 105.91 243.29 104.12 245.11 103.38ZM257 103H253V104.9H257C258.71 104.9 260.1 106.29 260.1 108C260.1 109.27 259.33 110.37 258.23 110.84L259.63 112.24C261.05 111.36 262 109.79 262 108C262 105.24 259.76 103 257 103ZM254.39 107L256 108.61V107H254.39Z" fill="black" fill-opacity="0.54"/>
<path fill-rule="evenodd" clip-rule="evenodd" d="M296.5 114C292.92 114 290 111.08 290 107.5C290 103.92 292.92 101 296.5 101H300V103H296.5C294.02 103 292 105.02 292 107.5C292 109.98 294.02 112 296.5 112H297V110L300 113L297 116V114H296.5ZM310 101H302V103H310V101ZM310 106.5H302V108.5H310V106.5ZM302 112H310V114H302V112Z" fill="black" fill-opacity="0.54"/>
<path fill-rule="evenodd" clip-rule="evenodd" d="M340 100H356C357.1 100 358 100.9 358 102V114C358 115.1 357.1 116 356 116H340C338.9 116 338 115.1 338 114L338.01 102C338.01 100.9 338.9 100 340 100ZM348 109L356 104V102L348 107L340 102V104L348 109Z" fill="black" fill-opacity="0.54"/>
<path fill-rule="evenodd" clip-rule="evenodd" d="M388 100H404C405.1 100 406 100.9 406 102V114C406 115.1 405.1 116 404 116H388C386.9 116 386 115.1 386 114L386.01 102C386.01 100.9 386.9 100 388 100ZM396 109L404 104V102L396 107L388 102V104L396 109Z" fill="black" fill-opacity="0.54"/>
<path fill-rule="evenodd" clip-rule="evenodd" d="M451 99H436.99C435.88 99 435 99.9 435 101V115C435 116.1 435.88 117 436.99 117H451C452.1 117 453 116.1 453 115V101C453 99.9 452.1 99 451 99ZM451 111H447C447 112.66 445.65 114 444 114C442.35 114 441 112.66 441 111H436.99V101H451V111ZM446 106H448L444 110L440 106H442V103H446V106Z" fill="black" fill-opacity="0.54"/>
<path fill-rule="evenodd" clip-rule="evenodd" d="M20 151H16V149C16 148.45 15.78 147.95 15.41 147.59C15.05 147.22 14.55 147 14 147H10C8.9 147 8 147.9 8 149V151H4C2.9 151 2 151.9 2 153V164C2 165.1 2.9 166 4 166H20C21.1 166 22 165.1 22 164V153C22 151.9 21.1 151 20 151ZM10 149H14V151H10V149ZM10 161.5L11 162.5L15 158.5L11 154.5L10 155.5L13 158.5L10 161.5Z" fill="black" fill-opacity="0.54"/>
<path fill-rule="evenodd" clip-rule="evenodd" d="M61 148L62 150H68V160H61L60 158H55V165H53V148H61ZM62 158H66V152H61L60 150H55V156H61L62 158Z" fill="black" fill-opacity="0.54"/>
<path fill-rule="evenodd" clip-rule="evenodd" d="M115 146H110.82C110.4 144.84 109.3 144 108 144C106.7 144 105.6 144.84 105.18 146H101C99.9 146 99 146.9 99 148V164C99 165.1 99.9 166 101 166H115C116.1 166 117 165.1 117 164V148C117 146.9 116.1 146 115 146ZM108 146C108.55 146 109 146.45 109 147C109 147.55 108.55 148 108 148C107.45 148 107 147.55 107 147C107 146.45 107.45 146 108 146ZM101 148V164H115V148H113V151H103V148H101Z" fill="black" fill-opacity="0.54"/>
<path d="M162.4 154.6C160.55 152.99 158.15 152 155.5 152C150.85 152 146.92 155.03 145.54 159.22L147.9 160C148.95 156.81 151.95 154.5 155.5 154.5C157.45 154.5 159.23 155.22 160.62 156.38L157 160H166V151L162.4 154.6Z" fill="black" fill-opacity="0.54"/>
<path d="M211 157H197V155H211V157Z" fill="black" fill-opacity="0.54"/>
<path fill-rule="evenodd" clip-rule="evenodd" d="M242 156C242 150.48 246.48 146 252 146C257.52 146 262 150.48 262 156C262 161.52 257.52 166 252 166C246.48 166 242 161.52 242 156ZM247 157H257V155H247V157Z" fill="black" fill-opacity="0.54"/>
<path fill-rule="evenodd" clip-rule="evenodd" d="M300 146C294.48 146 290 150.48 290 156C290 161.52 294.48 166 300 166C305.52 166 310 161.52 310 156C310 150.48 305.52 146 300 146ZM292 156C292 160.41 295.59 164 300 164C304.41 164 308 160.41 308 156C308 151.59 304.41 148 300 148C295.59 148 292 151.59 292 156ZM295 155V157H305V155H295Z" fill="black" fill-opacity="0.54"/>
<path d="M346 153V149L339 156L346 163V158.9C351 158.9 354.5 160.5 357 164C356 159 353 154 346 153Z" fill="black" fill-opacity="0.54"/>
<path fill-rule="evenodd" clip-rule="evenodd" d="M391 149V152L387 156L391 160V163L384 156L391 149ZM397 149V153C404 154 407 159 408 164C405.5 160.5 402 158.9 397 158.9V163L390 156L397 149Z" fill="black" fill-opacity="0.54"/>
<path fill-rule="evenodd" clip-rule="evenodd" d="M447.73 147H440.27L435 152.27V159.73L440.27 165H447.73L453 159.73V152.27L447.73 147ZM444 161.3C443.28 161.3 442.7 160.72 442.7 160C442.7 159.28 443.28 158.7 444 158.7C444.72 158.7 445.3 159.28 445.3 160C445.3 160.72 444.72 161.3 444 161.3ZM443 157H445V151H443V157Z" fill="black" fill-opacity="0.54"/>
<path fill-rule="evenodd" clip-rule="evenodd" d="M8.27 195H15.73L21 200.27V207.73L15.73 213H8.27L3 207.73V200.27L8.27 195ZM14.9 211L19 206.9V201.1L14.9 197H9.1L5 201.1V206.9L9.1 211H14.9ZM12 209C12.5523 209 13 208.552 13 208C13 207.448 12.5523 207 12 207C11.4477 207 11 207.448 11 208C11 208.552 11.4477 209 12 209ZM13 199H11V206H13V199Z" fill="black" fill-opacity="0.54"/>
<path fill-rule="evenodd" clip-rule="evenodd" d="M49 194.99L50.41 193.58L70.42 213.59L69.01 215L65.37 211.36L63.73 213H56.27L51 207.73V200.27L52.64 198.63L49 194.99ZM61 199H59V199.33L55.47 195.8L56.27 195H63.73L69 200.27V207.73L68.2 208.53L61 201.33V199ZM59 204.99L59.01 205H59V204.99ZM58.7 208C58.7 208.72 59.28 209.3 60 209.3C60.72 209.3 61.3 208.72 61.3 208C61.3 207.28 60.72 206.7 60 206.7C59.28 206.7 58.7 207.28 58.7 208Z" fill="black" fill-opacity="0.54"/>
<path fill-rule="evenodd" clip-rule="evenodd" d="M113 195H101C99.89 195 99 195.9 99 197V211C99 212.1 99.89 213 101 213H115C116.1 213 117 212.1 117 211V199L113 195ZM108 211C106.34 211 105 209.66 105 208C105 206.34 106.34 205 108 205C109.66 205 111 206.34 111 208C111 209.66 109.66 211 108 211ZM101 201H111V197H101V201Z" fill="black" fill-opacity="0.54"/>
<path fill-rule="evenodd" clip-rule="evenodd" d="M159.59 202.09L157 204.67V195H155V204.67L152.41 202.09L151 203.5L156 208.5L161 203.5L159.59 202.09ZM163 211V204H165V211C165 212.1 164.1 213 163 213H149C147.9 213 147 212.1 147 211V204H149V211H163Z" fill="black" fill-opacity="0.54"/>
<path fill-rule="evenodd" clip-rule="evenodd" d="M197 197H195C195 195.9 195.9 195 197 195V197ZM197 205H195V203H197V205ZM199 213H201V211H199V213ZM197 201H195V199H197V201ZM205 195H203V197H205V195ZM211 197V195C212.1 195 213 195.9 213 197H211ZM197 213V211H195C195 212.1 195.9 213 197 213ZM197 209H195V207H197V209ZM201 195H199V197H201V195ZM205 213H203V211H205V213ZM211 205H213V203H211V205ZM213 211C213 212.1 212.1 213 211 213V211H213ZM211 201H213V199H211V201ZM213 209H211V207H213V209ZM207 213H209V211H207V213ZM209 197H207V195H209V197ZM199 209H209V199H199V209ZM207 201H201V207H207V201Z" fill="black" fill-opacity="0.54"/>
<path d="M242.01 213L263 204L242.01 195L242 202L257 204L242 206L242.01 213Z" fill="black" fill-opacity="0.54"/>
<path fill-rule="evenodd" clip-rule="evenodd" d="M291 198V200H309V198H291ZM291 210H297V208H291V210ZM303 205H291V203H303V205Z" fill="black" fill-opacity="0.54"/>
<path fill-rule="evenodd" clip-rule="evenodd" d="M344.6 207L345.5 204.8H350.5L351.4 207H353.5L348.75 196H347.25L342.5 207H344.6ZM341 209V211H355V209H341ZM349.87 203L348 197.98L346.13 203H349.87Z" fill="black" fill-opacity="0.54"/>
<path fill-rule="evenodd" clip-rule="evenodd" d="M404.55 197.22L403.16 195.54C402.88 195.21 402.47 195 402 195H390C389.53 195 389.12 195.21 388.85 195.55L387.46 197.22C387.17 197.57 387 198.01 387 198.5V211C387 212.1 387.89 213 389 213H403C404.1 213 405 212.1 405 211V198.5C405 198.01 404.83 197.57 404.55 197.22ZM396 201.5L401.5 207H398V209H394V207H390.5L396 201.5ZM389.94 196L389.12 197H402.87L401.94 196H389.94Z" fill="black" fill-opacity="0.54"/>
<path d="M444.5 200C441.85 200 439.45 200.99 437.6 202.6L434 199V208H443L439.38 204.38C440.77 203.22 442.54 202.5 444.5 202.5C448.04 202.5 451.05 204.81 452.1 208L454.47 207.22C453.08 203.03 449.15 200 444.5 200Z" fill="black" fill-opacity="0.54"/>
<path fill-rule="evenodd" clip-rule="evenodd" d="M19.95 244.46C19.2 244.08 18.37 243.66 17 243.66C15.63 243.66 14.8 244.08 14.05 244.46L13.9703 244.499C13.3558 244.803 12.8342 245.06 12 245.06C11.1 245.06 10.6 244.81 9.95 244.46L9.87173 244.421C9.14248 244.061 8.33216 243.66 7 243.66C5.62883 243.66 4.81051 244.075 4.0644 244.453L4.05 244.46L4.0245 244.473C3.3863 244.797 2.86846 245.06 2 245.06V246.99C3.3291 246.99 4.17356 246.573 4.91509 246.207L4.95 246.19L4.9755 246.177C5.6137 245.853 6.13154 245.59 7 245.59C7.88 245.59 8.4 245.84 9.05 246.19L9.0644 246.197C9.81051 246.575 10.6288 246.99 12 246.99C13.3322 246.99 14.1425 246.589 14.8717 246.229L14.95 246.19L15.0297 246.151C15.6442 245.847 16.1658 245.59 17 245.59C17.9 245.59 18.4 245.84 19.05 246.19C19.8 246.57 20.63 246.99 22 246.99V245.04C21.1 245.04 20.6 244.79 19.95 244.46ZM14.0849 253.323C14.8264 252.957 15.6709 252.54 17 252.54C18.35 252.54 19.2 252.96 19.95 253.34C20.6 253.69 21.1 253.94 22 253.94V255.89C20.63 255.89 19.8 255.47 19.05 255.09C18.4 254.74 17.9 254.49 17 254.49C16.1 254.49 15.6 254.74 14.95 255.09L14.8717 255.129C14.1425 255.489 13.3322 255.89 12 255.89C10.6288 255.89 9.81051 255.475 9.0644 255.097L9.05 255.09C8.4 254.74 7.9 254.49 7 254.49C6.1 254.49 5.6 254.74 4.95 255.09L4.91509 255.107C4.17356 255.473 3.3291 255.89 2 255.89V253.94C2.83575 253.94 3.3468 253.687 3.95287 253.388L4.05 253.34L4.12827 253.301C4.85752 252.941 5.66784 252.54 7 252.54C8.37117 252.54 9.18949 252.955 9.9356 253.333L9.95 253.34C10.6 253.69 11.1 253.94 12 253.94C12.8342 253.94 13.3558 253.683 13.9703 253.379L14.05 253.34L14.0849 253.323ZM14.05 257.79C14.8 257.41 15.65 256.99 17 256.99C18.35 256.99 19.2 257.41 19.95 257.79C20.6 258.14 21.1 258.39 22 258.39V260.34C20.63 260.34 19.8 259.92 19.05 259.54C18.4 259.19 17.9 258.94 17 258.94C16.1318 258.94 15.6022 259.209 14.9541 259.538L14.95 259.54L14.9356 259.547C14.1895 259.925 13.3712 260.34 12 260.34C10.6288 260.34 9.81051 259.925 9.0644 259.547L9.05 259.54C8.4 259.19 7.88 258.94 7 258.94C6.13154 258.94 5.6137 259.203 4.9755 259.527L4.95 259.54C4.2 259.92 3.35 260.34 2 260.34V258.39C2.86846 258.39 3.3863 258.127 4.0245 257.803L4.05 257.79L4.0644 257.783C4.81051 257.405 5.62883 256.99 7 256.99C8.37117 256.99 9.18949 257.405 9.9356 257.783L9.95 257.79C10.6 258.14 11.1 258.39 12 258.39C12.8682 258.39 13.3978 258.121 14.0459 257.792L14.05 257.79ZM14.0849 248.873C14.8264 248.507 15.6709 248.09 17 248.09C18.35 248.09 19.2 248.51 19.95 248.89C20.6 249.24 21.1 249.49 22 249.49V251.44C20.63 251.44 19.8 251.02 19.05 250.64C18.4 250.29 17.9 250.04 17 250.04C16.1658 250.04 15.6442 250.297 15.0297 250.601C15.0033 250.614 14.9768 250.627 14.95 250.64C14.924 250.653 14.8979 250.666 14.8717 250.679C14.1425 251.039 13.3322 251.44 12 251.44C10.6288 251.44 9.81051 251.025 9.0644 250.647L9.05 250.64C8.4 250.29 7.87 250.04 7 250.04C6.16581 250.04 5.64421 250.297 5.02969 250.601C5.00331 250.614 4.97675 250.627 4.95 250.64C4.93839 250.646 4.92675 250.651 4.91509 250.657C4.17356 251.023 3.3291 251.44 2 251.44V249.49C2.9 249.49 3.4 249.24 4.05 248.89C4.076 248.877 4.10208 248.864 4.12826 248.851C4.85752 248.491 5.66783 248.09 7 248.09C8.37117 248.09 9.18949 248.505 9.9356 248.883L9.95 248.89C10.6 249.24 11.1 249.49 12 249.49C12.9 249.49 13.4 249.24 14.05 248.89L14.0849 248.873Z" fill="black" fill-opacity="0.54"/>
<path fill-rule="evenodd" clip-rule="evenodd" d="M54 245H66C67.1 245 68 245.9 68 247V249.15C66.84 249.57 66 250.67 66 251.97V254H54V251.97C54 250.66 53.16 249.56 52 249.15V247C52 245.9 52.9 245 54 245ZM67 252C67 250.9 67.9 250 69 250C70.1 250 71 250.9 71 252V257C71 258.1 70.1 259 69 259H51C49.9 259 49 258.1 49 257V252C49 250.9 49.9 250 51 250C52.1 250 53 250.9 53 252V255H67V252Z" fill="black" fill-opacity="0.54"/>
<path fill-rule="evenodd" clip-rule="evenodd" d="M115 249C115 245.14 111.86 242 108 242C104.14 242 101 245.14 101 249C101 254.25 108 262 108 262C108 262 115 254.25 115 249ZM113.02 247.45L106.47 254L102.98 250.52L104.4 249.1L106.48 251.17L111.61 246.03L113.02 247.45Z" fill="black" fill-opacity="0.54"/>
</svg>
