<svg width="456" height="168" viewBox="0 0 456 168" fill="none" xmlns="http://www.w3.org/2000/svg">
<path fill-rule="evenodd" clip-rule="evenodd" d="M4 8H8V4H4V8ZM10 20H14V16H10V20ZM8 20H4V16H8V20ZM4 14H8V10H4V14ZM14 14H10V10H14V14ZM16 4V8H20V4H16ZM14 8H10V4H14V8ZM16 14H20V10H16V14ZM20 20H16V16H20V20Z" fill="black" fill-opacity="0.54"/>
<path d="M68 11H55.83L61.42 5.41L60 4L52 12L60 20L61.41 18.59L55.83 13H68V11Z" fill="black" fill-opacity="0.54"/>
<path d="M113.51 3.87001L111.73 2.10001L101.84 12L111.74 21.9L113.51 20.13L105.38 12L113.51 3.87001Z" fill="black" fill-opacity="0.54"/>
<path d="M164 12L162.59 10.59L157 16.17V4H155V16.17L149.42 10.58L148 12L156 20L164 12Z" fill="black" fill-opacity="0.54"/>
<path d="M199 10L204 15L209 10H199Z" fill="black" fill-opacity="0.54"/>
<path fill-rule="evenodd" clip-rule="evenodd" d="M242 12C242 6.48 246.48 2 252 2C257.52 2 262 6.48 262 12C262 17.52 257.52 22 252 22C246.48 22 242 17.52 242 12ZM248 11L252 15L256 11H248Z" fill="black" fill-opacity="0.54"/>
<path d="M295 14L300 9L305 14H295Z" fill="black" fill-opacity="0.54"/>
<path d="M348 4L346.59 5.41L352.17 11H340V13H352.17L346.59 18.59L348 20L356 12L348 4Z" fill="black" fill-opacity="0.54"/>
<path d="M390.49 20.13L392.26 21.9L402.16 12L392.26 2.10001L390.49 3.87001L398.62 12L390.49 20.13Z" fill="black" fill-opacity="0.54"/>
<path d="M446 7L441 12L446 17V7Z" fill="black" fill-opacity="0.54"/>
<path d="M10 65L15 60L10 55V65Z" fill="black" fill-opacity="0.54"/>
<path d="M52 60L53.41 61.41L59 55.83V68H61V55.83L66.58 61.42L68 60L60 52L52 60Z" fill="black" fill-opacity="0.54"/>
<path fill-rule="evenodd" clip-rule="evenodd" d="M98 60C98 54.47 102.47 50 108 50C113.53 50 118 54.47 118 60C118 65.53 113.53 70 108 70C102.47 70 98 65.53 98 60ZM111.59 65L113 63.59L109.41 60L113 56.41L111.59 55L108 58.59L104.41 55L103 56.41L106.59 60L103 63.59L104.41 65L108 61.41L111.59 65Z" fill="black" fill-opacity="0.54"/>
<path d="M153 64.17L148.83 60L147.41 61.41L153 67L165 55L163.59 53.59L153 64.17Z" fill="black" fill-opacity="0.54"/>
<path d="M207.41 55.41L206 54L200 60L206 66L207.41 64.59L202.83 60L207.41 55.41Z" fill="black" fill-opacity="0.54"/>
<path d="M250 54L248.59 55.41L253.17 60L248.59 64.59L250 66L256 60L250 54Z" fill="black" fill-opacity="0.54"/>
<path d="M307 54.41L305.59 53L300 58.59L294.41 53L293 54.41L298.59 60L293 65.59L294.41 67L300 61.41L305.59 67L307 65.59L301.41 60L307 54.41Z" fill="black" fill-opacity="0.54"/>
<path d="M348 56L342 62L343.41 63.41L348 58.83L352.59 63.41L354 62L348 56Z" fill="black" fill-opacity="0.54"/>
<path d="M400.59 56.59L396 61.17L391.41 56.59L390 58L396 64L402 58L400.59 56.59Z" fill="black" fill-opacity="0.54"/>
<path fill-rule="evenodd" clip-rule="evenodd" d="M440 54H438V66H440V54ZM445.82 60L450.41 64.59L449 66L443 60L449 54L450.41 55.41L445.82 60Z" fill="black" fill-opacity="0.54"/>
<path fill-rule="evenodd" clip-rule="evenodd" d="M7 106H5V101H10V103H7V106ZM5 110H7V113H10V115H5V110ZM17 113H14V115H19V110H17V113ZM14 103V101H19V106H17V103H14Z" fill="black" fill-opacity="0.54"/>
<path fill-rule="evenodd" clip-rule="evenodd" d="M53 104H56V101H58V106H53V104ZM56 112H53V110H58V115H56V112ZM62 115H64V112H67V110H62V115ZM64 101V104H67V106H62V101H64Z" fill="black" fill-opacity="0.54"/>
<path fill-rule="evenodd" clip-rule="evenodd" d="M106.18 108L101.59 103.41L103 102L109 108L103 114L101.59 112.59L106.18 108ZM114 102H112V114H114V102Z" fill="black" fill-opacity="0.54"/>
<path fill-rule="evenodd" clip-rule="evenodd" d="M147 104V102H165V104H147ZM147 109H165V107H147V109ZM147 114H165V112H147V114Z" fill="black" fill-opacity="0.54"/>
<path fill-rule="evenodd" clip-rule="evenodd" d="M198 106C196.9 106 196 106.9 196 108C196 109.1 196.9 110 198 110C199.1 110 200 109.1 200 108C200 106.9 199.1 106 198 106ZM210 106C208.9 106 208 106.9 208 108C208 109.1 208.9 110 210 110C211.1 110 212 109.1 212 108C212 106.9 211.1 106 210 106ZM202 108C202 106.9 202.9 106 204 106C205.1 106 206 106.9 206 108C206 109.1 205.1 110 204 110C202.9 110 202 109.1 202 108Z" fill="black" fill-opacity="0.54"/>
<path fill-rule="evenodd" clip-rule="evenodd" d="M252 104C253.1 104 254 103.1 254 102C254 100.9 253.1 100 252 100C250.9 100 250 100.9 250 102C250 103.1 250.9 104 252 104ZM252 106C250.9 106 250 106.9 250 108C250 109.1 250.9 110 252 110C253.1 110 254 109.1 254 108C254 106.9 253.1 106 252 106ZM250 114C250 112.9 250.9 112 252 112C253.1 112 254 112.9 254 114C254 115.1 253.1 116 252 116C250.9 116 250 115.1 250 114Z" fill="black" fill-opacity="0.54"/>
<path d="M305.65 102.35C304.2 100.9 302.21 100 300 100C295.58 100 292.01 103.58 292.01 108C292.01 112.42 295.58 116 300 116C303.73 116 306.84 113.45 307.73 110H305.65C304.83 112.33 302.61 114 300 114C296.69 114 294 111.31 294 108C294 104.69 296.69 102 300 102C301.66 102 303.14 102.69 304.22 103.78L301 107H308V100L305.65 102.35Z" fill="black" fill-opacity="0.54"/>
<path d="M347 105L348.42 106.42L344.83 110H354V100H356V112H344.83L348.42 115.58L347 117L341 111L347 105Z" fill="black" fill-opacity="0.54"/>
<path d="M403 111L397 117L395.58 115.58L399.17 112H388V100H390V110H399.17L395.58 106.42L397 105L403 111Z" fill="black" fill-opacity="0.54"/>
<path fill-rule="evenodd" clip-rule="evenodd" d="M447.17 100L448.59 101.41L444 106L439.41 101.41L440.83 100L444 103.17L447.17 100ZM440.83 116L439.41 114.59L444 110L448.58 114.59L447.17 116L444 112.83L440.83 116Z" fill="black" fill-opacity="0.54"/>
<path fill-rule="evenodd" clip-rule="evenodd" d="M15.1699 153L11.9999 149.83L8.82991 153L7.40991 151.59L11.9999 147L16.5799 151.59L15.1699 153ZM8.82991 159L11.9999 162.17L15.1699 159L16.5899 160.41L11.9999 165L7.41991 160.41L8.82991 159Z" fill="black" fill-opacity="0.54"/>
</svg>
