<svg width="456" height="168" viewBox="0 0 456 168" fill="none" xmlns="http://www.w3.org/2000/svg">
<path fill-rule="evenodd" clip-rule="evenodd" d="M12 6C13.11 6 14 5.1 14 4C14 3.62 13.9 3.27 13.71 2.97L12 0L10.29 2.97C10.1 3.27 10 3.62 10 4C10 5.1 10.9 6 12 6ZM16.6 15.99L15.53 14.92L14.45 15.99C13.15 17.29 10.87 17.3 9.56 15.99L8.49 14.92L7.4 15.99C6.75 16.64 5.88 17 4.96 17C4.23 17 3.56 16.77 3 16.39V21C3 21.55 3.45 22 4 22H20C20.55 22 21 21.55 21 21V16.39C20.44 16.77 19.77 17 19.04 17C18.12 17 17.25 16.64 16.6 15.99ZM13 9H18C19.66 9 21 10.34 20.99 12V13.54C20.99 14.62 20.11 15.5 19.03 15.5C18.51 15.5 18.02 15.3 17.65 14.93L15.52 12.8L13.38 14.93C12.64 15.67 11.35 15.67 10.61 14.93L8.48 12.8L6.34 14.93C5.98 15.3 5.48 15.5 4.96 15.5C3.88 15.5 3 14.62 3 13.54V12C3 10.34 4.34 9 6 9H11V7H13V9Z" fill="black" fill-opacity="0.54"/>
<path fill-rule="evenodd" clip-rule="evenodd" d="M60 7H70V21H50V3H60V7ZM52 19H54V17H52V19ZM54 15H52V13H54V15ZM52 11H54V9H52V11ZM54 7H52V5H54V7ZM56 19H58V17H56V19ZM58 15H56V13H58V15ZM56 11H58V9H56V11ZM58 7H56V5H58V7ZM68 19V9H60V11H62V13H60V15H62V17H60V19H68ZM66 11H64V13H66V11ZM64 15H66V17H64V15Z" fill="black" fill-opacity="0.54"/>
<path fill-rule="evenodd" clip-rule="evenodd" d="M106.99 8C106.99 9.65997 105.66 11 104 11C102.34 11 101 9.65997 101 8C101 6.34003 102.34 5 104 5C105.66 5 106.99 6.34003 106.99 8ZM114.99 8C114.99 9.65997 113.66 11 112 11C110.34 11 109 9.65997 109 8C109 6.34003 110.34 5 112 5C113.66 5 114.99 6.34003 114.99 8ZM104 13C101.67 13 97 14.17 97 16.5V19H111V16.5C111 14.17 106.33 13 104 13ZM111.03 13.05C111.38 13.02 111.71 13 112 13C114.33 13 119 14.17 119 16.5V19H113V16.5C113 15.02 112.19 13.89 111.03 13.05Z" fill="black" fill-opacity="0.54"/>
<path fill-rule="evenodd" clip-rule="evenodd" d="M162 11C163.66 11 164.99 9.65997 164.99 8C164.99 6.34003 163.66 5 162 5C161.68 5 161.37 5.04999 161.09 5.14001C161.66 5.95001 161.99 6.92999 161.99 8C161.99 9.07001 161.65 10.04 161.09 10.86C161.37 10.95 161.68 11 162 11ZM152 10H149V7H147V10H144V12H147V15H149V12H152V10ZM159.99 8C159.99 9.65997 158.66 11 157 11C155.34 11 154 9.65997 154 8C154 6.34003 155.34 5 157 5C158.66 5 159.99 6.34003 159.99 8ZM163.62 13.16C164.45 13.89 165 14.8199 165 16V18H168V16C168 14.46 165.63 13.5099 163.62 13.16ZM151 16C151 14 155 13 157 13C159 13 163 14 163 16V18H151V16Z" fill="black" fill-opacity="0.54"/>
<path fill-rule="evenodd" clip-rule="evenodd" d="M207 5V11H213V21H195V7H201V5L204 2L207 5ZM197 19H199V17H197V19ZM199 15H197V13H199V15ZM197 11H199V9H197V11ZM203 19V17H205V19H203ZM203 13V15H205V13H203ZM203 11V9H205V11H203ZM203 5V7H205V5H203ZM211 19H209V17H211V19ZM209 15H211V13H209V15Z" fill="black" fill-opacity="0.54"/>
<path fill-rule="evenodd" clip-rule="evenodd" d="M251.99 2C246.47 2 242 6.47998 242 12C242 17.52 246.47 22 251.99 22C257.52 22 262 17.52 262 12C262 6.47998 257.52 2 251.99 2ZM252 20C247.58 20 244 16.42 244 12C244 7.58002 247.58 4 252 4C256.42 4 260 7.58002 260 12C260 16.42 256.42 20 252 20ZM257 9.5C257 10.33 256.33 11 255.5 11C254.67 11 254 10.33 254 9.5C254 8.66998 254.67 8 255.5 8C256.33 8 257 8.66998 257 9.5ZM248.5 11C249.33 11 250 10.33 250 9.5C250 8.66998 249.33 8 248.5 8C247.67 8 247 8.66998 247 9.5C247 10.33 247.67 11 248.5 11ZM257.11 14C256.31 16.04 254.33 17.5 252 17.5C249.67 17.5 247.69 16.04 246.89 14H257.11Z" fill="black" fill-opacity="0.54"/>
<path fill-rule="evenodd" clip-rule="evenodd" d="M299.99 2C294.47 2 290 6.47998 290 12C290 17.52 294.47 22 299.99 22C305.52 22 310 17.52 310 12C310 6.47998 305.52 2 299.99 2ZM300 20C295.58 20 292 16.42 292 12C292 7.58002 295.58 4 300 4C304.42 4 308 7.58002 308 12C308 16.42 304.42 20 300 20ZM305 9.5C305 10.33 304.33 11 303.5 11C302.67 11 302 10.33 302 9.5C302 8.66998 302.67 8 303.5 8C304.33 8 305 8.66998 305 9.5ZM296.5 11C297.33 11 298 10.33 298 9.5C298 8.66998 297.33 8 296.5 8C295.67 8 295 8.66998 295 9.5C295 10.33 295.67 11 296.5 11ZM294.89 17C295.69 14.96 297.67 13.5 300 13.5C302.33 13.5 304.31 14.96 305.11 17H294.89Z" fill="black" fill-opacity="0.54"/>
<path fill-rule="evenodd" clip-rule="evenodd" d="M354 11V16L356 18V19H340V18L342 16V11C342 7.91998 343.63 5.35999 346.5 4.67999V4C346.5 3.16998 347.17 2.5 348 2.5C348.83 2.5 349.5 3.16998 349.5 4V4.67999C352.36 5.35999 354 7.92999 354 11ZM350 20C350 21.1 349.1 22 348 22C346.89 22 346 21.1 346 20H350Z" fill="black" fill-opacity="0.54"/>
<path fill-rule="evenodd" clip-rule="evenodd" d="M402 11C402 7.92999 400.36 5.35999 397.5 4.67999V4C397.5 3.16998 396.83 2.5 396 2.5C395.17 2.5 394.5 3.16998 394.5 4V4.67999C391.63 5.35999 390 7.91998 390 11V16L388 18V19H404V18L402 16V11ZM390.15 2.65002L391.58 4.08002C389.54 5.53003 388.18 7.85004 388.03 10.5H386.03C386.17 7.30005 387.75 4.48004 390.15 2.65002ZM405.97 10.5H403.97C403.82 7.85004 402.45 5.53003 400.43 4.08002L401.85 2.65002C404.24 4.48004 405.82 7.30005 405.97 10.5ZM396.4 21.96C396.27 21.99 396.14 22 396 22C394.89 22 394 21.1 393.99 20H397.99C397.99 20.28 397.94 20.54 397.84 20.78C397.58 21.38 397.05 21.82 396.4 21.96Z" fill="black" fill-opacity="0.54"/>
<path fill-rule="evenodd" clip-rule="evenodd" d="M450 16V11C450 7.92999 448.37 5.35999 445.5 4.67999V4C445.5 3.16998 444.83 2.5 444 2.5C443.17 2.5 442.5 3.16998 442.5 4V4.67999C439.64 5.35999 438 7.91998 438 11V16L436 18V19H452V18L450 16ZM444 22C445.1 22 446 21.1 446 20H442C442 21.1 442.9 22 444 22ZM440 17H448V11C448 8.52002 446.49 6.5 444 6.5C441.51 6.5 440 8.52002 440 11V17Z" fill="black" fill-opacity="0.54"/>
<path fill-rule="evenodd" clip-rule="evenodd" d="M18 59C18 55.93 16.3601 53.36 13.5 52.68V52C13.5 51.17 12.8301 50.5 12 50.5C11.17 50.5 10.5 51.17 10.5 52V52.68C10.299 52.7302 10.1049 52.8016 9.91772 52.8705L9.91589 52.8712L9.81006 52.91L18 61.1V59ZM12 70C13.1 70 14 69.1 14 68H10C10 69.1 10.89 70 12 70ZM6.81006 55.5699L4 52.7599L5.41003 51.35L21.39 67.33L19.98 68.74L18.24 67H4V66L6 64V59C6 57.73 6.29004 56.5699 6.81006 55.5699Z" fill="black" fill-opacity="0.54"/>
<path fill-rule="evenodd" clip-rule="evenodd" d="M66 64V59C66 55.93 64.36 53.36 61.5 52.68V52C61.5 51.17 60.83 50.5 60 50.5C59.17 50.5 58.5 51.17 58.5 52V52.68C55.63 53.36 54 55.93 54 59V64L52 66V67H68V66L66 64ZM60 70C61.1 70 62 69.1 62 68H58C58 69.1 58.89 70 60 70ZM59.7 61.2L62.5 57.8V56H57.5V57.8H60.3L57.5 61.2V63H62.5V61.2H59.7Z" fill="black" fill-opacity="0.54"/>
<path fill-rule="evenodd" clip-rule="evenodd" d="M99 59V53C99 51.9 99.9 51 101 51H107V56L103 55L104 59H99ZM99 61H104L103 65L107 64V69H101C99.9 69 99 68.1 99 67V61ZM113 65L109 64V69H115C116.1 69 117 68.1 117 67V61H112L113 65ZM109 51H115C116.1 51 117 51.9 117 53V59H112L113 55L109 56V51Z" fill="black" fill-opacity="0.54"/>
<path fill-rule="evenodd" clip-rule="evenodd" d="M164 52H160.83L159 50H153L151.17 52H148C146.9 52 146 52.9 146 54V66C146 67.1 146.9 68 148 68H164C165.1 68 166 67.1 166 66V54C166 52.9 165.1 52 164 52ZM156 55C157.63 55 159.06 55.79 159.98 57H156C154.34 57 153 58.34 153 60C153 60.35 153.07 60.69 153.18 61H151.1C151.04 60.68 151 60.34 151 60C151 57.24 153.24 55 156 55ZM152.02 63C152.94 64.21 154.37 65 156 65C158.76 65 161 62.76 161 60C161 59.66 160.97 59.32 160.9 59H158.82C158.93 59.31 159 59.65 159 60C159 61.66 157.66 63 156 63H152.02Z" fill="black" fill-opacity="0.54"/>
<path fill-rule="evenodd" clip-rule="evenodd" d="M202.99 56C202.99 57.66 201.66 59 200 59C198.34 59 197 57.66 197 56C197 54.34 198.34 53 200 53C201.66 53 202.99 54.34 202.99 56ZM210.99 56C210.99 57.66 209.66 59 208 59C206.34 59 205 57.66 205 56C205 54.34 206.34 53 208 53C209.66 53 210.99 54.34 210.99 56ZM200 61C197.67 61 193 62.17 193 64.5V67H207V64.5C207 62.17 202.33 61 200 61ZM207.03 61.05C207.38 61.02 207.71 61 208 61C210.33 61 215 62.17 215 64.5V67H209V64.5C209 63.02 208.19 61.89 207.03 61.05Z" fill="black" fill-opacity="0.54"/>
<path fill-rule="evenodd" clip-rule="evenodd" d="M252.5 56.5C252.5 58.43 250.93 60 249 60C247.07 60 245.5 58.43 245.5 56.5C245.5 54.57 247.07 53 249 53C250.93 53 252.5 54.57 252.5 56.5ZM250.5 56.5C250.5 55.67 249.83 55 249 55C248.17 55 247.5 55.67 247.5 56.5C247.5 57.33 248.17 58 249 58C249.83 58 250.5 57.33 250.5 56.5ZM249 61.75C246.66 61.75 242 62.92 242 65.25V67H256V65.25C256 62.92 251.34 61.75 249 61.75ZM249 63.75C247.21 63.75 245.18 64.42 244.34 65H253.66C252.82 64.42 250.79 63.75 249 63.75ZM256.04 61.81C257.2 62.65 258 63.77 258 65.25V67H262V65.25C262 63.23 258.5 62.08 256.04 61.81ZM258.5 56.5C258.5 58.43 256.93 60 255 60C254.46 60 253.96 59.87 253.5 59.65C254.13 58.76 254.5 57.67 254.5 56.5C254.5 55.33 254.13 54.24 253.5 53.35C253.96 53.13 254.46 53 255 53C256.93 53 258.5 54.57 258.5 56.5Z" fill="black" fill-opacity="0.54"/>
<path fill-rule="evenodd" clip-rule="evenodd" d="M304 56C304 58.21 302.21 60 300 60C297.79 60 296 58.21 296 56C296 53.79 297.79 52 300 52C302.21 52 304 53.79 304 56ZM292 66C292 63.34 297.33 62 300 62C302.67 62 308 63.34 308 66V68H292V66Z" fill="black" fill-opacity="0.54"/>
<path fill-rule="evenodd" clip-rule="evenodd" d="M351 60C353.21 60 355 58.21 355 56C355 53.79 353.21 52 351 52C348.79 52 347 53.79 347 56C347 58.21 348.79 60 351 60ZM342 58V55H340V58H337V60H340V63H342V60H345V58H342ZM343 66C343 63.34 348.33 62 351 62C353.67 62 359 63.34 359 66V68H343V66Z" fill="black" fill-opacity="0.54"/>
<path fill-rule="evenodd" clip-rule="evenodd" d="M396 52C393.79 52 392 53.79 392 56C392 58.21 393.79 60 396 60C398.21 60 400 58.21 400 56C400 53.79 398.21 52 396 52ZM398.1 56C398.1 54.84 397.16 53.9 396 53.9C394.84 53.9 393.9 54.84 393.9 56C393.9 57.16 394.84 58.1 396 58.1C397.16 58.1 398.1 57.16 398.1 56ZM402.1 65C402.1 64.36 398.97 62.9 396 62.9C393.03 62.9 389.9 64.36 389.9 65V66.1H402.1V65ZM388 65C388 62.34 393.33 61 396 61C398.67 61 404 62.34 404 65V68H388V65Z" fill="black" fill-opacity="0.54"/>
<path fill-rule="evenodd" clip-rule="evenodd" d="M446.5 55.9V54.08L451 53V66H449V55.4L446.5 55.9ZM440 56H442V60H446V62H442V66H440V62H436V60H440V56Z" fill="black" fill-opacity="0.54"/>
<path fill-rule="evenodd" clip-rule="evenodd" d="M5 99H19C20.1 99 21 99.9 21 101V115C21 116.1 20.1 117 19 117H5C3.90002 117 3 116.1 3 115V101C3 99.9 3.90002 99 5 99ZM7 113H9V106H7V113ZM13 113H11V103H13V113ZM15 113H17V109H15V113Z" fill="black" fill-opacity="0.54"/>
<path fill-rule="evenodd" clip-rule="evenodd" d="M60 98C54.48 98 50 102.48 50 108C50 113.52 54.48 118 60 118C65.52 118 70 113.52 70 108C70 102.48 65.52 98 60 98ZM59 115.93C55.05 115.44 52 112.08 52 108C52 107.38 52.08 106.79 52.21 106.21L57 111V112C57 113.1 57.9 114 59 114V115.93ZM64 112C64.9 112 65.64 112.58 65.9 113.39C67.2 111.97 68 110.08 68 108C68 104.65 65.9301 101.78 63 100.59V101C63 102.1 62.1 103 61 103H59V105C59 105.55 58.55 106 58 106H56V108H62C62.55 108 63 108.45 63 109V112H64Z" fill="black" fill-opacity="0.54"/>
<path fill-rule="evenodd" clip-rule="evenodd" d="M97 105L108 99L119 105V113H117V106.09L108 111L97 105ZM101 113.18V109.18L108 113L115 109.18V113.18L108 117L101 113.18Z" fill="black" fill-opacity="0.54"/>
<path fill-rule="evenodd" clip-rule="evenodd" d="M155.99 98C150.47 98 146 102.48 146 108C146 113.52 150.47 118 155.99 118C161.52 118 166 113.52 166 108C166 102.48 161.52 98 155.99 98ZM152.5 107C153.328 107 154 106.328 154 105.5C154 104.672 153.328 104 152.5 104C151.672 104 151 104.672 151 105.5C151 106.328 151.672 107 152.5 107ZM159.5 107C160.328 107 161 106.328 161 105.5C161 104.672 160.328 104 159.5 104C158.672 104 158 104.672 158 105.5C158 106.328 158.672 107 159.5 107ZM150.88 113.5C151.68 111.45 153.67 110 156 110C158.33 110 160.32 111.45 161.12 113.5H159.45C158.75 112.31 157.48 111.5 156 111.5C154.52 111.5 153.24 112.31 152.55 113.5H150.88ZM148 108C148 112.42 151.58 116 156 116C160.42 116 164 112.42 164 108C164 103.58 160.42 100 156 100C151.58 100 148 103.58 148 108Z" fill="black" fill-opacity="0.54"/>
<path fill-rule="evenodd" clip-rule="evenodd" d="M203.99 98C198.47 98 194 102.48 194 108C194 113.52 198.47 118 203.99 118C209.52 118 214 113.52 214 108C214 102.48 209.52 98 203.99 98ZM202 105.5C202 106.328 201.328 107 200.5 107C199.672 107 199 106.328 199 105.5C199 104.672 199.672 104 200.5 104C201.328 104 202 104.672 202 105.5ZM207.5 107C208.328 107 209 106.328 209 105.5C209 104.672 208.328 104 207.5 104C206.672 104 206 104.672 206 105.5C206 106.328 206.672 107 207.5 107ZM201 111.5V110H207V111.5H201ZM196 108C196 112.42 199.58 116 204 116C208.42 116 212 112.42 212 108C212 103.58 208.42 100 204 100C199.58 100 196 103.58 196 108Z" fill="black" fill-opacity="0.54"/>
<path fill-rule="evenodd" clip-rule="evenodd" d="M242 108C242 102.48 246.47 98 251.99 98C257.52 98 262 102.48 262 108C262 113.52 257.52 118 251.99 118C246.47 118 242 113.52 242 108ZM248.5 107C249.328 107 250 106.328 250 105.5C250 104.672 249.328 104 248.5 104C247.672 104 247 104.672 247 105.5C247 106.328 247.672 107 248.5 107ZM255.5 107C256.328 107 257 106.328 257 105.5C257 104.672 256.328 104 255.5 104C254.672 104 254 104.672 254 105.5C254 106.328 254.672 107 255.5 107ZM252 116C247.58 116 244 112.42 244 108C244 103.58 247.58 100 252 100C256.42 100 260 103.58 260 108C260 112.42 256.42 116 252 116ZM248.55 110C249.25 111.19 250.52 112 252 112C253.48 112 254.75 111.19 255.45 110H257.12C256.32 112.05 254.33 113.5 252 113.5C249.67 113.5 247.68 112.05 246.88 110H248.55Z" fill="black" fill-opacity="0.54"/>
<path fill-rule="evenodd" clip-rule="evenodd" d="M290 108C290 102.47 294.47 98 299.99 98C305.52 98 310 102.47 310 108C310 113.53 305.51 118 299.99 118C294.47 118 290 113.53 290 108ZM295.82 108L296.88 106.94L297.94 108L299 106.94L297.94 105.88L299 104.82L297.94 103.76L296.88 104.82L295.82 103.76L294.76 104.82L295.82 105.88L294.76 106.94L295.82 108ZM300 109.5C297.67 109.5 295.69 110.96 294.89 113H305.11C304.31 110.96 302.33 109.5 300 109.5ZM300 116C295.58 116 292 112.42 292 108C292 103.58 295.58 100 300 100C304.42 100 308 103.58 308 108C308 112.42 304.42 116 300 116ZM303.12 104.82L304.18 103.76L305.24 104.82L304.18 105.88L305.24 106.94L304.18 108L303.12 106.94L302.06 108L301 106.94L302.06 105.88L301 104.82L302.06 103.76L303.12 104.82Z" fill="black" fill-opacity="0.54"/>
<path fill-rule="evenodd" clip-rule="evenodd" d="M347.99 98C342.47 98 338 102.47 338 108C338 113.53 342.47 118 347.99 118C353.51 118 358 113.53 358 108C358 102.47 353.52 98 347.99 98ZM344.88 105.94L345.94 107L347 105.94L344.88 103.82L342.76 105.94L343.82 107L344.88 105.94ZM348 113.5C350.33 113.5 352.31 112.04 353.11 110H342.89C343.69 112.04 345.67 113.5 348 113.5ZM350.06 107L349 105.94L351.12 103.82L353.24 105.94L352.18 107L351.12 105.94L350.06 107ZM340 108C340 112.42 343.58 116 348 116C352.42 116 356 112.42 356 108C356 103.58 352.42 100 348 100C343.58 100 340 103.58 340 108Z" fill="black" fill-opacity="0.54"/>
<path d="M402 112.08C401.24 112.08 400.56 112.38 400.04 112.85L392.91 108.7C392.96 108.47 393 108.24 393 108C393 107.76 392.96 107.53 392.91 107.3L399.96 103.19C400.5 103.69 401.21 104 402 104C403.66 104 405 102.66 405 101C405 99.34 403.66 98 402 98C400.34 98 399 99.34 399 101C399 101.24 399.04 101.47 399.09 101.7L392.04 105.81C391.5 105.31 390.79 105 390 105C388.34 105 387 106.34 387 108C387 109.66 388.34 111 390 111C390.79 111 391.5 110.69 392.04 110.19L399.16 114.35C399.11 114.56 399.08 114.78 399.08 115C399.08 116.61 400.39 117.92 402 117.92C403.61 117.92 404.92 116.61 404.92 115C404.92 113.39 403.61 112.08 402 112.08Z" fill="black" fill-opacity="0.54"/>
<path fill-rule="evenodd" clip-rule="evenodd" d="M438 99H447C448.1 99 449 99.9 449 101V111C449 111.55 448.78 112.05 448.41 112.41L441.83 119L440.77 117.95C440.5 117.68 440.33 117.3 440.33 116.89L440.36 116.57L441.31 112H435C433.9 112 433 111.1 433 110V108C433 107.74 433.05 107.5 433.14 107.27L436.16 100.22C436.46 99.5 437.17 99 438 99ZM455 99H451V111H455V99Z" fill="black" fill-opacity="0.54"/>
<path fill-rule="evenodd" clip-rule="evenodd" d="M14.6899 152H21C22.1 152 23 152.9 23 154V156C23 156.26 22.95 156.5 22.86 156.73L19.84 163.78C19.54 164.5 18.83 165 18 165H9C7.90002 165 7 164.1 7 163V153C7 152.45 7.21997 151.95 7.58997 151.59L14.17 145L15.23 146.05C15.5 146.32 15.67 146.7 15.67 147.11L15.64 147.43L14.6899 152ZM5 153H1V165H5V153Z" fill="black" fill-opacity="0.54"/>
<path fill-rule="evenodd" clip-rule="evenodd" d="M62.24 149.47C62.24 147.32 61.5 144.67 61.5 144.67C65.41 147.8 68 152.61 68 158C68 162.42 64.42 166 60 166C55.58 166 52 162.42 52 158C52 154.62 53.21 151.51 55.23 149.11L55.2 149.47C55.2 151.53 56.76 153.2 58.83 153.2C60.89 153.2 62.24 151.53 62.24 149.47ZM56.49 159.86C56.49 161.6 57.9299 163 59.71 163C62.36 163 64.51 160.85 64.51 158.2C64.51 156.81 64.3099 155.45 63.92 154.16C62.9 155.53 61.0699 156.38 59.3 156.74C57.54 157.1 56.49 158.24 56.49 159.86Z" fill="black" fill-opacity="0.54"/>
</svg>
